<mxfile host="app.diagrams.net" modified="2023-10-17T12:24:56.667Z" agent="Mozilla/5.0 (Windows NT 10.0; Win64; x64) AppleWebKit/537.36 (KHTML, like Gecko) Chrome/118.0.0.0 Safari/537.36" etag="EXG84NRoRAS54YJrBa9p" version="22.0.4" type="device" pages="2">
  <diagram name="Strona-1" id="GwXrYQd7j6BxO62r5Agl">
    <mxGraphModel dx="191" dy="101" grid="1" gridSize="10" guides="1" tooltips="1" connect="1" arrows="1" fold="1" page="1" pageScale="1" pageWidth="827" pageHeight="1169" math="0" shadow="0">
      <root>
        <mxCell id="0" />
        <mxCell id="1" parent="0" />
        <mxCell id="Kkj-AONkPXiHIKSb8kpL-1" value="" style="rounded=0;whiteSpace=wrap;html=1;" vertex="1" parent="1">
          <mxGeometry x="510" y="130" width="120" height="60" as="geometry" />
        </mxCell>
        <mxCell id="Kkj-AONkPXiHIKSb8kpL-2" value="pracownik" style="text;html=1;strokeColor=none;fillColor=none;align=center;verticalAlign=middle;whiteSpace=wrap;rounded=0;" vertex="1" parent="1">
          <mxGeometry x="540" y="140" width="60" height="30" as="geometry" />
        </mxCell>
        <mxCell id="Kkj-AONkPXiHIKSb8kpL-3" value="klienci" style="rounded=0;whiteSpace=wrap;html=1;" vertex="1" parent="1">
          <mxGeometry x="190" y="130" width="120" height="60" as="geometry" />
        </mxCell>
        <mxCell id="Kkj-AONkPXiHIKSb8kpL-7" value="zwierze" style="rounded=0;whiteSpace=wrap;html=1;" vertex="1" parent="1">
          <mxGeometry x="200" y="250" width="110" height="60" as="geometry" />
        </mxCell>
        <mxCell id="Kkj-AONkPXiHIKSb8kpL-9" value="kupuje" style="text;html=1;align=center;verticalAlign=middle;resizable=0;points=[];autosize=1;strokeColor=none;fillColor=none;" vertex="1" parent="1">
          <mxGeometry x="245" y="205" width="60" height="30" as="geometry" />
        </mxCell>
        <mxCell id="Kkj-AONkPXiHIKSb8kpL-10" value="sklep" style="rounded=0;whiteSpace=wrap;html=1;" vertex="1" parent="1">
          <mxGeometry x="350" y="360" width="120" height="60" as="geometry" />
        </mxCell>
        <mxCell id="Kkj-AONkPXiHIKSb8kpL-12" value="" style="endArrow=ERmany;html=1;rounded=0;entryX=0.5;entryY=1;entryDx=0;entryDy=0;startArrow=ERmandOne;startFill=0;endFill=0;" edge="1" parent="1" target="Kkj-AONkPXiHIKSb8kpL-7">
          <mxGeometry width="50" height="50" relative="1" as="geometry">
            <mxPoint x="350" y="390" as="sourcePoint" />
            <mxPoint x="440" y="370" as="targetPoint" />
          </mxGeometry>
        </mxCell>
        <mxCell id="Kkj-AONkPXiHIKSb8kpL-14" value="przechowuje" style="edgeLabel;html=1;align=center;verticalAlign=middle;resizable=0;points=[];" vertex="1" connectable="0" parent="Kkj-AONkPXiHIKSb8kpL-12">
          <mxGeometry x="0.0927" y="2" relative="1" as="geometry">
            <mxPoint x="26" y="-8" as="offset" />
          </mxGeometry>
        </mxCell>
        <mxCell id="Kkj-AONkPXiHIKSb8kpL-15" value="dostawca" style="rounded=0;whiteSpace=wrap;html=1;" vertex="1" parent="1">
          <mxGeometry x="520" y="300" width="120" height="60" as="geometry" />
        </mxCell>
        <mxCell id="Kkj-AONkPXiHIKSb8kpL-16" value="" style="endArrow=ERmany;html=1;rounded=0;entryX=0.5;entryY=1;entryDx=0;entryDy=0;exitX=1;exitY=0.75;exitDx=0;exitDy=0;startArrow=ERmany;startFill=0;endFill=0;" edge="1" parent="1" source="Kkj-AONkPXiHIKSb8kpL-10" target="Kkj-AONkPXiHIKSb8kpL-15">
          <mxGeometry width="50" height="50" relative="1" as="geometry">
            <mxPoint x="390" y="420" as="sourcePoint" />
            <mxPoint x="440" y="370" as="targetPoint" />
          </mxGeometry>
        </mxCell>
        <mxCell id="Kkj-AONkPXiHIKSb8kpL-17" value="zaopatruje" style="text;html=1;align=center;verticalAlign=middle;resizable=0;points=[];autosize=1;strokeColor=none;fillColor=none;" vertex="1" parent="1">
          <mxGeometry x="490" y="388" width="80" height="30" as="geometry" />
        </mxCell>
        <mxCell id="Kkj-AONkPXiHIKSb8kpL-18" value="zamowienie" style="rounded=0;whiteSpace=wrap;html=1;" vertex="1" parent="1">
          <mxGeometry x="350" y="490" width="120" height="60" as="geometry" />
        </mxCell>
        <mxCell id="Kkj-AONkPXiHIKSb8kpL-19" value="" style="endArrow=ERone;html=1;rounded=0;entryX=0.5;entryY=1;entryDx=0;entryDy=0;exitX=0.5;exitY=0;exitDx=0;exitDy=0;startArrow=ERmany;startFill=0;endFill=0;" edge="1" parent="1" source="Kkj-AONkPXiHIKSb8kpL-18" target="Kkj-AONkPXiHIKSb8kpL-10">
          <mxGeometry width="50" height="50" relative="1" as="geometry">
            <mxPoint x="390" y="420" as="sourcePoint" />
            <mxPoint x="440" y="370" as="targetPoint" />
          </mxGeometry>
        </mxCell>
        <mxCell id="Kkj-AONkPXiHIKSb8kpL-20" value="tworzy" style="text;html=1;align=center;verticalAlign=middle;resizable=0;points=[];autosize=1;strokeColor=none;fillColor=none;" vertex="1" parent="1">
          <mxGeometry x="340" y="438" width="60" height="30" as="geometry" />
        </mxCell>
        <mxCell id="Kkj-AONkPXiHIKSb8kpL-21" value="faktura" style="rounded=0;whiteSpace=wrap;html=1;" vertex="1" parent="1">
          <mxGeometry x="520" y="490" width="120" height="60" as="geometry" />
        </mxCell>
        <mxCell id="Kkj-AONkPXiHIKSb8kpL-25" value="" style="endArrow=ERmandOne;html=1;rounded=0;entryX=0;entryY=0.5;entryDx=0;entryDy=0;exitX=1;exitY=0.5;exitDx=0;exitDy=0;startArrow=ERmandOne;startFill=0;endFill=0;" edge="1" parent="1" source="Kkj-AONkPXiHIKSb8kpL-18" target="Kkj-AONkPXiHIKSb8kpL-21">
          <mxGeometry width="50" height="50" relative="1" as="geometry">
            <mxPoint x="390" y="420" as="sourcePoint" />
            <mxPoint x="440" y="370" as="targetPoint" />
          </mxGeometry>
        </mxCell>
        <mxCell id="Kkj-AONkPXiHIKSb8kpL-27" value="" style="endArrow=ERmandOne;html=1;rounded=0;entryX=0;entryY=0.5;entryDx=0;entryDy=0;exitX=1.008;exitY=0.617;exitDx=0;exitDy=0;exitPerimeter=0;startArrow=ERmany;startFill=0;endFill=0;" edge="1" parent="1" source="Kkj-AONkPXiHIKSb8kpL-3" target="Kkj-AONkPXiHIKSb8kpL-1">
          <mxGeometry width="50" height="50" relative="1" as="geometry">
            <mxPoint x="390" y="420" as="sourcePoint" />
            <mxPoint x="440" y="370" as="targetPoint" />
          </mxGeometry>
        </mxCell>
        <mxCell id="Kkj-AONkPXiHIKSb8kpL-28" value="generuje" style="text;html=1;align=center;verticalAlign=middle;resizable=0;points=[];autosize=1;strokeColor=none;fillColor=none;" vertex="1" parent="1">
          <mxGeometry x="460" y="479" width="70" height="30" as="geometry" />
        </mxCell>
        <mxCell id="Kkj-AONkPXiHIKSb8kpL-29" value="nrPracownika" style="ellipse;whiteSpace=wrap;html=1;" vertex="1" parent="1">
          <mxGeometry x="470" y="20" width="90" height="60" as="geometry" />
        </mxCell>
        <mxCell id="Kkj-AONkPXiHIKSb8kpL-30" value="" style="endArrow=none;html=1;rounded=0;entryX=0.589;entryY=1;entryDx=0;entryDy=0;exitX=0.15;exitY=0.033;exitDx=0;exitDy=0;exitPerimeter=0;entryPerimeter=0;" edge="1" parent="1" source="Kkj-AONkPXiHIKSb8kpL-1" target="Kkj-AONkPXiHIKSb8kpL-29">
          <mxGeometry width="50" height="50" relative="1" as="geometry">
            <mxPoint x="321" y="177" as="sourcePoint" />
            <mxPoint x="520" y="170" as="targetPoint" />
          </mxGeometry>
        </mxCell>
        <mxCell id="Kkj-AONkPXiHIKSb8kpL-31" value="pensja" style="ellipse;whiteSpace=wrap;html=1;" vertex="1" parent="1">
          <mxGeometry x="570" y="10" width="90" height="60" as="geometry" />
        </mxCell>
        <mxCell id="Kkj-AONkPXiHIKSb8kpL-32" value="" style="endArrow=none;html=1;rounded=0;entryX=0.589;entryY=1;entryDx=0;entryDy=0;exitX=0.15;exitY=0.033;exitDx=0;exitDy=0;exitPerimeter=0;entryPerimeter=0;" edge="1" parent="1" target="Kkj-AONkPXiHIKSb8kpL-31">
          <mxGeometry width="50" height="50" relative="1" as="geometry">
            <mxPoint x="608" y="132" as="sourcePoint" />
            <mxPoint x="600" y="170" as="targetPoint" />
          </mxGeometry>
        </mxCell>
        <mxCell id="Kkj-AONkPXiHIKSb8kpL-33" value="nazwisko" style="ellipse;whiteSpace=wrap;html=1;" vertex="1" parent="1">
          <mxGeometry x="670" y="50" width="90" height="60" as="geometry" />
        </mxCell>
        <mxCell id="Kkj-AONkPXiHIKSb8kpL-34" value="" style="endArrow=none;html=1;rounded=0;entryX=0.589;entryY=1;entryDx=0;entryDy=0;exitX=1;exitY=0;exitDx=0;exitDy=0;entryPerimeter=0;" edge="1" parent="1" target="Kkj-AONkPXiHIKSb8kpL-33" source="Kkj-AONkPXiHIKSb8kpL-1">
          <mxGeometry width="50" height="50" relative="1" as="geometry">
            <mxPoint x="728" y="162" as="sourcePoint" />
            <mxPoint x="720" y="200" as="targetPoint" />
          </mxGeometry>
        </mxCell>
        <mxCell id="Kkj-AONkPXiHIKSb8kpL-35" value="imie" style="ellipse;whiteSpace=wrap;html=1;" vertex="1" parent="1">
          <mxGeometry x="680" y="150" width="90" height="60" as="geometry" />
        </mxCell>
        <mxCell id="Kkj-AONkPXiHIKSb8kpL-36" value="" style="endArrow=none;html=1;rounded=0;entryX=0.589;entryY=1;entryDx=0;entryDy=0;exitX=1;exitY=1;exitDx=0;exitDy=0;entryPerimeter=0;startArrow=none;startFill=0;" edge="1" parent="1" target="Kkj-AONkPXiHIKSb8kpL-35" source="Kkj-AONkPXiHIKSb8kpL-1">
          <mxGeometry width="50" height="50" relative="1" as="geometry">
            <mxPoint x="630" y="202" as="sourcePoint" />
            <mxPoint x="730" y="300" as="targetPoint" />
          </mxGeometry>
        </mxCell>
        <mxCell id="Kkj-AONkPXiHIKSb8kpL-37" value="imie" style="ellipse;whiteSpace=wrap;html=1;" vertex="1" parent="1">
          <mxGeometry x="255" y="20" width="90" height="60" as="geometry" />
        </mxCell>
        <mxCell id="Kkj-AONkPXiHIKSb8kpL-38" value="" style="endArrow=none;html=1;rounded=0;entryX=0.589;entryY=1;entryDx=0;entryDy=0;entryPerimeter=0;" edge="1" parent="1" target="Kkj-AONkPXiHIKSb8kpL-37">
          <mxGeometry width="50" height="50" relative="1" as="geometry">
            <mxPoint x="308" y="130" as="sourcePoint" />
            <mxPoint x="300" y="174" as="targetPoint" />
          </mxGeometry>
        </mxCell>
        <mxCell id="Kkj-AONkPXiHIKSb8kpL-39" value="nazwisko" style="ellipse;whiteSpace=wrap;html=1;" vertex="1" parent="1">
          <mxGeometry x="170" y="20" width="90" height="60" as="geometry" />
        </mxCell>
        <mxCell id="Kkj-AONkPXiHIKSb8kpL-40" value="" style="endArrow=none;html=1;rounded=0;entryX=0.589;entryY=1;entryDx=0;entryDy=0;exitX=0.35;exitY=0;exitDx=0;exitDy=0;exitPerimeter=0;entryPerimeter=0;" edge="1" parent="1" target="Kkj-AONkPXiHIKSb8kpL-39" source="Kkj-AONkPXiHIKSb8kpL-3">
          <mxGeometry width="50" height="50" relative="1" as="geometry">
            <mxPoint x="228" y="132" as="sourcePoint" />
            <mxPoint x="220" y="170" as="targetPoint" />
          </mxGeometry>
        </mxCell>
        <mxCell id="Kkj-AONkPXiHIKSb8kpL-41" value="nrTelefonu" style="ellipse;whiteSpace=wrap;html=1;" vertex="1" parent="1">
          <mxGeometry x="80" y="50" width="90" height="60" as="geometry" />
        </mxCell>
        <mxCell id="Kkj-AONkPXiHIKSb8kpL-42" value="" style="endArrow=none;html=1;rounded=0;entryX=0.589;entryY=1;entryDx=0;entryDy=0;exitX=0;exitY=0;exitDx=0;exitDy=0;entryPerimeter=0;" edge="1" parent="1" target="Kkj-AONkPXiHIKSb8kpL-41" source="Kkj-AONkPXiHIKSb8kpL-3">
          <mxGeometry width="50" height="50" relative="1" as="geometry">
            <mxPoint x="138" y="162" as="sourcePoint" />
            <mxPoint x="130" y="200" as="targetPoint" />
          </mxGeometry>
        </mxCell>
        <mxCell id="Kkj-AONkPXiHIKSb8kpL-43" value="nrpracownika" style="ellipse;whiteSpace=wrap;html=1;" vertex="1" parent="1">
          <mxGeometry x="345" y="50" width="90" height="60" as="geometry" />
        </mxCell>
        <mxCell id="Kkj-AONkPXiHIKSb8kpL-44" value="" style="endArrow=none;html=1;rounded=0;entryX=0.589;entryY=1;entryDx=0;entryDy=0;exitX=1;exitY=0.4;exitDx=0;exitDy=0;exitPerimeter=0;entryPerimeter=0;" edge="1" parent="1" target="Kkj-AONkPXiHIKSb8kpL-43" source="Kkj-AONkPXiHIKSb8kpL-3">
          <mxGeometry width="50" height="50" relative="1" as="geometry">
            <mxPoint x="403" y="162" as="sourcePoint" />
            <mxPoint x="395" y="200" as="targetPoint" />
          </mxGeometry>
        </mxCell>
        <mxCell id="Kkj-AONkPXiHIKSb8kpL-45" value="rodzaj" style="ellipse;whiteSpace=wrap;html=1;" vertex="1" parent="1">
          <mxGeometry x="60" y="188" width="90" height="60" as="geometry" />
        </mxCell>
        <mxCell id="Kkj-AONkPXiHIKSb8kpL-46" value="" style="endArrow=none;html=1;rounded=0;entryX=0.589;entryY=1;entryDx=0;entryDy=0;exitX=0;exitY=0;exitDx=0;exitDy=0;entryPerimeter=0;" edge="1" parent="1" target="Kkj-AONkPXiHIKSb8kpL-45" source="Kkj-AONkPXiHIKSb8kpL-7">
          <mxGeometry width="50" height="50" relative="1" as="geometry">
            <mxPoint x="118" y="300" as="sourcePoint" />
            <mxPoint x="110" y="338" as="targetPoint" />
          </mxGeometry>
        </mxCell>
        <mxCell id="Kkj-AONkPXiHIKSb8kpL-47" value="idZwierze" style="ellipse;whiteSpace=wrap;html=1;" vertex="1" parent="1">
          <mxGeometry x="50" y="260" width="90" height="60" as="geometry" />
        </mxCell>
        <mxCell id="Kkj-AONkPXiHIKSb8kpL-48" value="" style="endArrow=none;html=1;rounded=0;entryX=0.589;entryY=1;entryDx=0;entryDy=0;exitX=0;exitY=0.5;exitDx=0;exitDy=0;entryPerimeter=0;" edge="1" parent="1" target="Kkj-AONkPXiHIKSb8kpL-47" source="Kkj-AONkPXiHIKSb8kpL-7">
          <mxGeometry width="50" height="50" relative="1" as="geometry">
            <mxPoint x="108" y="372" as="sourcePoint" />
            <mxPoint x="100" y="410" as="targetPoint" />
          </mxGeometry>
        </mxCell>
        <mxCell id="Kkj-AONkPXiHIKSb8kpL-49" value="cena" style="ellipse;whiteSpace=wrap;html=1;" vertex="1" parent="1">
          <mxGeometry x="40" y="326" width="90" height="60" as="geometry" />
        </mxCell>
        <mxCell id="Kkj-AONkPXiHIKSb8kpL-50" value="" style="endArrow=none;html=1;rounded=0;entryX=0.589;entryY=1;entryDx=0;entryDy=0;exitX=0.25;exitY=1;exitDx=0;exitDy=0;entryPerimeter=0;" edge="1" parent="1" target="Kkj-AONkPXiHIKSb8kpL-49" source="Kkj-AONkPXiHIKSb8kpL-7">
          <mxGeometry width="50" height="50" relative="1" as="geometry">
            <mxPoint x="98" y="438" as="sourcePoint" />
            <mxPoint x="90" y="476" as="targetPoint" />
          </mxGeometry>
        </mxCell>
        <mxCell id="Kkj-AONkPXiHIKSb8kpL-51" value="gatunek" style="ellipse;whiteSpace=wrap;html=1;" vertex="1" parent="1">
          <mxGeometry x="110" y="378" width="90" height="60" as="geometry" />
        </mxCell>
        <mxCell id="Kkj-AONkPXiHIKSb8kpL-52" value="" style="endArrow=none;html=1;rounded=0;entryX=0.589;entryY=1;entryDx=0;entryDy=0;entryPerimeter=0;" edge="1" parent="1" target="Kkj-AONkPXiHIKSb8kpL-51" source="Kkj-AONkPXiHIKSb8kpL-7">
          <mxGeometry width="50" height="50" relative="1" as="geometry">
            <mxPoint x="168" y="490" as="sourcePoint" />
            <mxPoint x="160" y="528" as="targetPoint" />
          </mxGeometry>
        </mxCell>
        <mxCell id="Kkj-AONkPXiHIKSb8kpL-53" value="idSklepu" style="ellipse;whiteSpace=wrap;html=1;" vertex="1" parent="1">
          <mxGeometry x="340" y="250" width="90" height="60" as="geometry" />
        </mxCell>
        <mxCell id="Kkj-AONkPXiHIKSb8kpL-54" value="" style="endArrow=none;html=1;rounded=0;entryX=0.589;entryY=1;entryDx=0;entryDy=0;exitX=0.15;exitY=0.033;exitDx=0;exitDy=0;exitPerimeter=0;entryPerimeter=0;" edge="1" parent="1" target="Kkj-AONkPXiHIKSb8kpL-53">
          <mxGeometry width="50" height="50" relative="1" as="geometry">
            <mxPoint x="398" y="362" as="sourcePoint" />
            <mxPoint x="390" y="400" as="targetPoint" />
          </mxGeometry>
        </mxCell>
        <mxCell id="Kkj-AONkPXiHIKSb8kpL-55" value="idDostawcy" style="ellipse;whiteSpace=wrap;html=1;" vertex="1" parent="1">
          <mxGeometry x="620" y="216" width="90" height="60" as="geometry" />
        </mxCell>
        <mxCell id="Kkj-AONkPXiHIKSb8kpL-56" value="" style="endArrow=none;html=1;rounded=0;entryX=0.589;entryY=1;entryDx=0;entryDy=0;entryPerimeter=0;" edge="1" parent="1" target="Kkj-AONkPXiHIKSb8kpL-55" source="Kkj-AONkPXiHIKSb8kpL-15">
          <mxGeometry width="50" height="50" relative="1" as="geometry">
            <mxPoint x="690" y="326" as="sourcePoint" />
            <mxPoint x="670" y="366" as="targetPoint" />
          </mxGeometry>
        </mxCell>
        <mxCell id="Kkj-AONkPXiHIKSb8kpL-57" value="idZamowienia" style="ellipse;whiteSpace=wrap;html=1;" vertex="1" parent="1">
          <mxGeometry x="220" y="449" width="90" height="60" as="geometry" />
        </mxCell>
        <mxCell id="Kkj-AONkPXiHIKSb8kpL-58" value="" style="endArrow=none;html=1;rounded=0;entryX=0.589;entryY=1;entryDx=0;entryDy=0;exitX=0;exitY=0.25;exitDx=0;exitDy=0;entryPerimeter=0;" edge="1" parent="1" target="Kkj-AONkPXiHIKSb8kpL-57" source="Kkj-AONkPXiHIKSb8kpL-18">
          <mxGeometry width="50" height="50" relative="1" as="geometry">
            <mxPoint x="278" y="561" as="sourcePoint" />
            <mxPoint x="270" y="599" as="targetPoint" />
          </mxGeometry>
        </mxCell>
        <mxCell id="Kkj-AONkPXiHIKSb8kpL-59" value="idFaktury" style="ellipse;whiteSpace=wrap;html=1;" vertex="1" parent="1">
          <mxGeometry x="660" y="370" width="90" height="60" as="geometry" />
        </mxCell>
        <mxCell id="Kkj-AONkPXiHIKSb8kpL-60" value="" style="endArrow=none;html=1;rounded=0;entryX=0.589;entryY=1;entryDx=0;entryDy=0;exitX=1;exitY=0;exitDx=0;exitDy=0;entryPerimeter=0;" edge="1" parent="1" target="Kkj-AONkPXiHIKSb8kpL-59" source="Kkj-AONkPXiHIKSb8kpL-21">
          <mxGeometry width="50" height="50" relative="1" as="geometry">
            <mxPoint x="718" y="482" as="sourcePoint" />
            <mxPoint x="710" y="520" as="targetPoint" />
          </mxGeometry>
        </mxCell>
        <mxCell id="Kkj-AONkPXiHIKSb8kpL-61" value="" style="endArrow=ERmandOne;html=1;rounded=0;labelBackgroundColor=default;strokeColor=default;align=center;verticalAlign=middle;fontFamily=Helvetica;fontSize=11;fontColor=default;shape=connector;exitX=0.5;exitY=0;exitDx=0;exitDy=0;entryX=0.5;entryY=1;entryDx=0;entryDy=0;startArrow=ERmany;startFill=0;endFill=0;" edge="1" parent="1" source="Kkj-AONkPXiHIKSb8kpL-7" target="Kkj-AONkPXiHIKSb8kpL-3">
          <mxGeometry width="50" height="50" relative="1" as="geometry">
            <mxPoint x="390" y="230" as="sourcePoint" />
            <mxPoint x="250" y="200" as="targetPoint" />
          </mxGeometry>
        </mxCell>
      </root>
    </mxGraphModel>
  </diagram>
  <diagram id="-atvyPWi_GuGStR585Fb" name="Strona-2">
    <mxGraphModel dx="1434" dy="758" grid="1" gridSize="10" guides="1" tooltips="1" connect="1" arrows="1" fold="1" page="1" pageScale="1" pageWidth="827" pageHeight="1169" math="0" shadow="0">
      <root>
        <mxCell id="0" />
        <mxCell id="1" parent="0" />
        <mxCell id="NIqM5ItGES1vR-EWDyPc-2" value="wydzial wmii" style="rounded=0;whiteSpace=wrap;html=1;fontFamily=Helvetica;fontSize=11;fontColor=default;" vertex="1" parent="1">
          <mxGeometry x="130" y="270" width="120" height="60" as="geometry" />
        </mxCell>
        <mxCell id="NIqM5ItGES1vR-EWDyPc-3" value="student" style="whiteSpace=wrap;html=1;fontFamily=Helvetica;fontSize=11;fontColor=default;" vertex="1" parent="1">
          <mxGeometry x="330" y="190" width="120" height="60" as="geometry" />
        </mxCell>
        <mxCell id="NIqM5ItGES1vR-EWDyPc-4" value="pracownicy" style="whiteSpace=wrap;html=1;fontFamily=Helvetica;fontSize=11;fontColor=default;" vertex="1" parent="1">
          <mxGeometry x="310" y="370" width="120" height="60" as="geometry" />
        </mxCell>
        <mxCell id="NIqM5ItGES1vR-EWDyPc-5" value="" style="endArrow=ERmany;html=1;rounded=0;labelBackgroundColor=default;strokeColor=default;align=center;verticalAlign=middle;fontFamily=Helvetica;fontSize=11;fontColor=default;shape=connector;exitX=1;exitY=0.75;exitDx=0;exitDy=0;entryX=0;entryY=0;entryDx=0;entryDy=0;startArrow=ERmany;startFill=0;endFill=0;" edge="1" parent="1" target="NIqM5ItGES1vR-EWDyPc-4">
          <mxGeometry width="50" height="50" relative="1" as="geometry">
            <mxPoint x="250" y="305" as="sourcePoint" />
            <mxPoint x="410" y="360" as="targetPoint" />
          </mxGeometry>
        </mxCell>
        <mxCell id="NIqM5ItGES1vR-EWDyPc-6" value="" style="endArrow=ERmany;html=1;rounded=0;labelBackgroundColor=default;strokeColor=default;align=center;verticalAlign=middle;fontFamily=Helvetica;fontSize=11;fontColor=default;shape=connector;exitX=1;exitY=0.5;exitDx=0;exitDy=0;entryX=0;entryY=1;entryDx=0;entryDy=0;startArrow=ERone;startFill=0;endFill=0;" edge="1" parent="1" target="NIqM5ItGES1vR-EWDyPc-3">
          <mxGeometry width="50" height="50" relative="1" as="geometry">
            <mxPoint x="250" y="290" as="sourcePoint" />
            <mxPoint x="430" y="270" as="targetPoint" />
          </mxGeometry>
        </mxCell>
        <mxCell id="NIqM5ItGES1vR-EWDyPc-7" value="grupy" style="whiteSpace=wrap;html=1;fontFamily=Helvetica;fontSize=11;fontColor=default;" vertex="1" parent="1">
          <mxGeometry x="540" y="240" width="120" height="60" as="geometry" />
        </mxCell>
        <mxCell id="NIqM5ItGES1vR-EWDyPc-8" value="imie" style="ellipse;whiteSpace=wrap;html=1;" vertex="1" parent="1">
          <mxGeometry x="290" y="270" width="90" height="60" as="geometry" />
        </mxCell>
        <mxCell id="NIqM5ItGES1vR-EWDyPc-9" value="" style="endArrow=none;html=1;rounded=0;entryX=0.589;entryY=1;entryDx=0;entryDy=0;exitX=0.15;exitY=0.033;exitDx=0;exitDy=0;exitPerimeter=0;entryPerimeter=0;" edge="1" parent="1" target="NIqM5ItGES1vR-EWDyPc-8">
          <mxGeometry width="50" height="50" relative="1" as="geometry">
            <mxPoint x="383" y="372" as="sourcePoint" />
            <mxPoint x="375" y="410" as="targetPoint" />
          </mxGeometry>
        </mxCell>
        <mxCell id="NIqM5ItGES1vR-EWDyPc-10" value="&lt;u&gt;nazwisko&lt;/u&gt;" style="ellipse;whiteSpace=wrap;html=1;" vertex="1" parent="1">
          <mxGeometry x="480" y="380" width="90" height="60" as="geometry" />
        </mxCell>
        <mxCell id="NIqM5ItGES1vR-EWDyPc-11" value="" style="endArrow=none;html=1;rounded=0;entryX=0.589;entryY=1;entryDx=0;entryDy=0;exitX=1;exitY=0.5;exitDx=0;exitDy=0;entryPerimeter=0;" edge="1" parent="1" target="NIqM5ItGES1vR-EWDyPc-10" source="NIqM5ItGES1vR-EWDyPc-4">
          <mxGeometry width="50" height="50" relative="1" as="geometry">
            <mxPoint x="508" y="452" as="sourcePoint" />
            <mxPoint x="500" y="490" as="targetPoint" />
          </mxGeometry>
        </mxCell>
        <mxCell id="NIqM5ItGES1vR-EWDyPc-12" value="tytul" style="ellipse;whiteSpace=wrap;html=1;" vertex="1" parent="1">
          <mxGeometry x="440" y="470" width="90" height="60" as="geometry" />
        </mxCell>
        <mxCell id="NIqM5ItGES1vR-EWDyPc-13" value="" style="endArrow=none;html=1;rounded=0;entryX=0.589;entryY=1;entryDx=0;entryDy=0;exitX=1;exitY=1;exitDx=0;exitDy=0;entryPerimeter=0;" edge="1" parent="1" target="NIqM5ItGES1vR-EWDyPc-12" source="NIqM5ItGES1vR-EWDyPc-4">
          <mxGeometry width="50" height="50" relative="1" as="geometry">
            <mxPoint x="518" y="552" as="sourcePoint" />
            <mxPoint x="510" y="590" as="targetPoint" />
          </mxGeometry>
        </mxCell>
        <mxCell id="NIqM5ItGES1vR-EWDyPc-14" value="nazwisko" style="ellipse;whiteSpace=wrap;html=1;" vertex="1" parent="1">
          <mxGeometry x="410" y="70" width="90" height="60" as="geometry" />
        </mxCell>
        <mxCell id="NIqM5ItGES1vR-EWDyPc-15" value="" style="endArrow=none;html=1;rounded=0;entryX=0.589;entryY=1;entryDx=0;entryDy=0;exitX=1;exitY=0;exitDx=0;exitDy=0;entryPerimeter=0;" edge="1" parent="1" target="NIqM5ItGES1vR-EWDyPc-14" source="NIqM5ItGES1vR-EWDyPc-3">
          <mxGeometry width="50" height="50" relative="1" as="geometry">
            <mxPoint x="468" y="182" as="sourcePoint" />
            <mxPoint x="460" y="220" as="targetPoint" />
          </mxGeometry>
        </mxCell>
        <mxCell id="NIqM5ItGES1vR-EWDyPc-16" value="imie" style="ellipse;whiteSpace=wrap;html=1;" vertex="1" parent="1">
          <mxGeometry x="320" y="78" width="90" height="60" as="geometry" />
        </mxCell>
        <mxCell id="NIqM5ItGES1vR-EWDyPc-17" value="" style="endArrow=none;html=1;rounded=0;entryX=0.589;entryY=1;entryDx=0;entryDy=0;exitX=0.15;exitY=0.033;exitDx=0;exitDy=0;exitPerimeter=0;entryPerimeter=0;" edge="1" parent="1" target="NIqM5ItGES1vR-EWDyPc-16">
          <mxGeometry width="50" height="50" relative="1" as="geometry">
            <mxPoint x="378" y="190" as="sourcePoint" />
            <mxPoint x="370" y="228" as="targetPoint" />
          </mxGeometry>
        </mxCell>
        <mxCell id="NIqM5ItGES1vR-EWDyPc-18" value="nazwa" style="ellipse;whiteSpace=wrap;html=1;" vertex="1" parent="1">
          <mxGeometry x="120" y="158" width="90" height="60" as="geometry" />
        </mxCell>
        <mxCell id="NIqM5ItGES1vR-EWDyPc-19" value="" style="endArrow=none;html=1;rounded=0;entryX=0.589;entryY=1;entryDx=0;entryDy=0;exitX=0.15;exitY=0.033;exitDx=0;exitDy=0;exitPerimeter=0;entryPerimeter=0;" edge="1" parent="1" target="NIqM5ItGES1vR-EWDyPc-18">
          <mxGeometry width="50" height="50" relative="1" as="geometry">
            <mxPoint x="178" y="270" as="sourcePoint" />
            <mxPoint x="170" y="308" as="targetPoint" />
          </mxGeometry>
        </mxCell>
        <mxCell id="NIqM5ItGES1vR-EWDyPc-20" value="&lt;u&gt;adres&lt;/u&gt;" style="ellipse;whiteSpace=wrap;html=1;" vertex="1" parent="1">
          <mxGeometry x="20" y="240" width="90" height="60" as="geometry" />
        </mxCell>
        <mxCell id="NIqM5ItGES1vR-EWDyPc-21" value="" style="endArrow=none;html=1;rounded=0;entryX=0.589;entryY=1;entryDx=0;entryDy=0;exitX=-0.017;exitY=0.867;exitDx=0;exitDy=0;exitPerimeter=0;entryPerimeter=0;" edge="1" parent="1" target="NIqM5ItGES1vR-EWDyPc-20" source="NIqM5ItGES1vR-EWDyPc-2">
          <mxGeometry width="50" height="50" relative="1" as="geometry">
            <mxPoint x="78" y="352" as="sourcePoint" />
            <mxPoint x="70" y="390" as="targetPoint" />
          </mxGeometry>
        </mxCell>
        <mxCell id="NIqM5ItGES1vR-EWDyPc-22" value="kierunek" style="ellipse;whiteSpace=wrap;html=1;" vertex="1" parent="1">
          <mxGeometry x="570" y="128" width="90" height="60" as="geometry" />
        </mxCell>
        <mxCell id="NIqM5ItGES1vR-EWDyPc-23" value="" style="endArrow=none;html=1;rounded=0;entryX=0.589;entryY=1;entryDx=0;entryDy=0;exitX=0.15;exitY=0.033;exitDx=0;exitDy=0;exitPerimeter=0;entryPerimeter=0;" edge="1" parent="1" target="NIqM5ItGES1vR-EWDyPc-22">
          <mxGeometry width="50" height="50" relative="1" as="geometry">
            <mxPoint x="628" y="240" as="sourcePoint" />
            <mxPoint x="620" y="278" as="targetPoint" />
          </mxGeometry>
        </mxCell>
        <mxCell id="NIqM5ItGES1vR-EWDyPc-24" value="nazwa" style="ellipse;whiteSpace=wrap;html=1;" vertex="1" parent="1">
          <mxGeometry x="710" y="214" width="90" height="60" as="geometry" />
        </mxCell>
        <mxCell id="NIqM5ItGES1vR-EWDyPc-25" value="" style="endArrow=none;html=1;rounded=0;entryX=0.589;entryY=1;entryDx=0;entryDy=0;exitX=1;exitY=1;exitDx=0;exitDy=0;entryPerimeter=0;" edge="1" parent="1" target="NIqM5ItGES1vR-EWDyPc-24" source="NIqM5ItGES1vR-EWDyPc-7">
          <mxGeometry width="50" height="50" relative="1" as="geometry">
            <mxPoint x="768" y="326" as="sourcePoint" />
            <mxPoint x="760" y="364" as="targetPoint" />
          </mxGeometry>
        </mxCell>
        <mxCell id="NIqM5ItGES1vR-EWDyPc-26" value="" style="endArrow=ERone;html=1;rounded=0;labelBackgroundColor=default;strokeColor=default;align=center;verticalAlign=middle;fontFamily=Helvetica;fontSize=11;fontColor=default;shape=connector;exitX=1.017;exitY=0.617;exitDx=0;exitDy=0;exitPerimeter=0;entryX=-0.008;entryY=0.4;entryDx=0;entryDy=0;entryPerimeter=0;startArrow=ERmany;startFill=0;endFill=0;" edge="1" parent="1" source="NIqM5ItGES1vR-EWDyPc-3" target="NIqM5ItGES1vR-EWDyPc-7">
          <mxGeometry width="50" height="50" relative="1" as="geometry">
            <mxPoint x="390" y="420" as="sourcePoint" />
            <mxPoint x="470" y="290" as="targetPoint" />
          </mxGeometry>
        </mxCell>
        <mxCell id="NIqM5ItGES1vR-EWDyPc-27" value="&lt;u&gt;identyfikator&lt;/u&gt;" style="ellipse;whiteSpace=wrap;html=1;" vertex="1" parent="1">
          <mxGeometry x="680" y="290" width="90" height="60" as="geometry" />
        </mxCell>
        <mxCell id="NIqM5ItGES1vR-EWDyPc-28" value="" style="endArrow=none;html=1;rounded=0;entryX=0.589;entryY=1;entryDx=0;entryDy=0;exitX=0.75;exitY=1;exitDx=0;exitDy=0;entryPerimeter=0;" edge="1" parent="1" target="NIqM5ItGES1vR-EWDyPc-27" source="NIqM5ItGES1vR-EWDyPc-7">
          <mxGeometry width="50" height="50" relative="1" as="geometry">
            <mxPoint x="738" y="402" as="sourcePoint" />
            <mxPoint x="730" y="440" as="targetPoint" />
          </mxGeometry>
        </mxCell>
        <mxCell id="NIqM5ItGES1vR-EWDyPc-29" value="specjalnosc" style="ellipse;whiteSpace=wrap;html=1;" vertex="1" parent="1">
          <mxGeometry x="670" y="110" width="90" height="60" as="geometry" />
        </mxCell>
        <mxCell id="NIqM5ItGES1vR-EWDyPc-30" value="" style="endArrow=none;html=1;rounded=0;entryX=0.589;entryY=1;entryDx=0;entryDy=0;exitX=0.883;exitY=-0.033;exitDx=0;exitDy=0;exitPerimeter=0;entryPerimeter=0;" edge="1" parent="1" target="NIqM5ItGES1vR-EWDyPc-29" source="NIqM5ItGES1vR-EWDyPc-7">
          <mxGeometry width="50" height="50" relative="1" as="geometry">
            <mxPoint x="628" y="232" as="sourcePoint" />
            <mxPoint x="620" y="270" as="targetPoint" />
          </mxGeometry>
        </mxCell>
        <mxCell id="NIqM5ItGES1vR-EWDyPc-33" value="semestr" style="ellipse;whiteSpace=wrap;html=1;" vertex="1" parent="1">
          <mxGeometry x="580" y="344" width="90" height="60" as="geometry" />
        </mxCell>
        <mxCell id="NIqM5ItGES1vR-EWDyPc-34" value="" style="endArrow=none;html=1;rounded=0;entryX=0.5;entryY=0;entryDx=0;entryDy=0;exitX=0.75;exitY=1;exitDx=0;exitDy=0;" edge="1" parent="1" target="NIqM5ItGES1vR-EWDyPc-33" source="NIqM5ItGES1vR-EWDyPc-7">
          <mxGeometry width="50" height="50" relative="1" as="geometry">
            <mxPoint x="638" y="456" as="sourcePoint" />
            <mxPoint x="630" y="494" as="targetPoint" />
          </mxGeometry>
        </mxCell>
        <mxCell id="NIqM5ItGES1vR-EWDyPc-35" value="&lt;u&gt;indeks&lt;/u&gt;" style="ellipse;whiteSpace=wrap;html=1;" vertex="1" parent="1">
          <mxGeometry x="240" y="106" width="90" height="60" as="geometry" />
        </mxCell>
        <mxCell id="NIqM5ItGES1vR-EWDyPc-36" value="" style="endArrow=none;html=1;rounded=0;entryX=0.589;entryY=1;entryDx=0;entryDy=0;exitX=0;exitY=0.25;exitDx=0;exitDy=0;entryPerimeter=0;" edge="1" parent="1" target="NIqM5ItGES1vR-EWDyPc-35" source="NIqM5ItGES1vR-EWDyPc-3">
          <mxGeometry width="50" height="50" relative="1" as="geometry">
            <mxPoint x="298" y="218" as="sourcePoint" />
            <mxPoint x="290" y="256" as="targetPoint" />
          </mxGeometry>
        </mxCell>
        <mxCell id="NIqM5ItGES1vR-EWDyPc-37" value="data urodzenia" style="ellipse;whiteSpace=wrap;html=1;" vertex="1" parent="1">
          <mxGeometry x="470" y="130" width="90" height="60" as="geometry" />
        </mxCell>
        <mxCell id="NIqM5ItGES1vR-EWDyPc-38" value="" style="endArrow=none;html=1;rounded=0;entryX=0.589;entryY=1;entryDx=0;entryDy=0;entryPerimeter=0;" edge="1" parent="1" target="NIqM5ItGES1vR-EWDyPc-37" source="NIqM5ItGES1vR-EWDyPc-3">
          <mxGeometry width="50" height="50" relative="1" as="geometry">
            <mxPoint x="528" y="242" as="sourcePoint" />
            <mxPoint x="520" y="280" as="targetPoint" />
          </mxGeometry>
        </mxCell>
        <mxCell id="NIqM5ItGES1vR-EWDyPc-39" value="" style="endArrow=ERmany;html=1;rounded=0;labelBackgroundColor=default;strokeColor=default;align=center;verticalAlign=middle;fontFamily=Helvetica;fontSize=11;fontColor=default;shape=connector;entryX=0;entryY=1;entryDx=0;entryDy=0;exitX=1;exitY=0;exitDx=0;exitDy=0;startArrow=ERmany;startFill=0;endFill=0;" edge="1" parent="1" source="NIqM5ItGES1vR-EWDyPc-4" target="NIqM5ItGES1vR-EWDyPc-7">
          <mxGeometry width="50" height="50" relative="1" as="geometry">
            <mxPoint x="520" y="460" as="sourcePoint" />
            <mxPoint x="570" y="410" as="targetPoint" />
          </mxGeometry>
        </mxCell>
      </root>
    </mxGraphModel>
  </diagram>
</mxfile>
